<?xml version="1.0" encoding="UTF-8"?>
<svg width="140px" height="56px" viewBox="0 0 79 28" version="1.1" xmlns="http://www.w3.org/2000/svg" xmlns:xlink="http://www.w3.org/1999/xlink">
    <!-- Generator: Sketch 55.2 (78181) - https://sketchapp.com -->
    <title>Group 3</title>
    <desc>Created with Sketch.</desc>
    <g id="Nav-&amp;-Footer-13" stroke="none" stroke-width="1" fill="none" fill-rule="evenodd">
        <g id="Nav_S" transform="translate(-220.000000, -17.000000)" fill="#FFFFFF" fill-rule="nonzero">
            <g id="Nav">
                <g id="logo" transform="translate(77.000000, 15.000000)">
                    <g id="Group-3" transform="translate(143.358000, 2.004000)">
                        <polygon id="Path" points="70.518 4.104 68.652 8.628 69.09 8.628 72.642 4.104"></polygon>
                        <path d="M4.404,15.078 C3.3535789,15.0851425 2.31601214,14.8468103 1.374,14.382 L0.6,15.078 L0.24,15.078 L-4.68958206e-13,10.65 L0.42,10.608 C1.674,13.482 3.15,14.394 4.53,14.394 C5.13303662,14.4429041 5.72797867,14.2300949 6.16318874,13.8098129 C6.5983988,13.3895309 6.83183512,12.8023757 6.804,12.198 C6.804,10.998 6.342,10.398 4.47,9.648 C3.834,9.39 3.096,9.132 2.478,8.832 C1.16286459,8.29008161 0.309915659,7.00234254 0.324,5.58 C0.350469473,4.53267797 0.795918696,3.5397359 1.56057468,2.8235758 C2.32523067,2.1074157 3.34519026,1.72788785 4.392,1.77 C5.21679531,1.76459045 6.02617636,1.99346427 6.726,2.43 L7.506,1.752 L7.842,1.752 L8.184,5.658 L7.782,5.718 C6.684,3.522 5.508,2.448 4.212,2.448 C3.6943877,2.41889374 3.18935903,2.61437778 2.82623723,2.9843943 C2.46311543,3.35441081 2.2771641,3.86302666 2.316,4.38 C2.316,5.316 2.718,6.036 4.116,6.654 C4.812,6.972 5.634,7.254 6.372,7.614 C7.986,8.394 8.772,9.414 8.772,10.884 C8.76451596,12.0249765 8.29641215,13.1145407 7.47394086,13.9053785 C6.65146958,14.6962163 5.54439288,15.1212487 4.404,15.084" id="Path"></path>
                        <path d="M14.952,6.018 C13.554,6.018 12.696,7.572 12.696,10.308 C12.696,13.044 13.614,14.508 15.03,14.508 C16.446,14.508 17.286,12.954 17.286,10.224 C17.286,7.494 16.428,6.024 14.952,6.024 M14.874,15.078 C11.844,15.078 10.35,12.906 10.35,10.278 C10.3078178,8.9924931 10.7999722,7.74693197 11.7094521,6.83745208 C12.618932,5.92797219 13.8644931,5.43581783 15.15,5.478 C18.18,5.478 19.638,7.632 19.638,10.278 C19.638,12.75 17.964,15.126 14.892,15.126" id="Shape"></path>
                        <path d="M23.946,15.012 C22.374,15.012 21.876,14.232 21.876,12.798 L21.876,6.84 L20.4,6.84 L20.4,6.558 L22.236,5.1 L23.688,3.204 L23.988,3.204 L23.988,5.796 L27.018,5.796 L27.018,6.834 L23.988,6.834 L23.988,12 C23.988,12.798 24.108,13.278 24.504,13.554 C24.9454944,13.8080342 25.4548213,13.919122 25.962,13.872 C26.28,13.872 26.682,13.872 27.06,13.83 L27.06,14.106 C26.1070801,14.6609722 25.030292,14.9683313 23.928,15" id="Path"></path>
                        <path d="M33.258,6.978 C32.5354045,6.96922871 31.8219787,7.14036843 31.182,7.476 L31.182,14.076 L32.304,14.478 L32.304,14.754 L27.798,14.754 L27.798,14.478 L29.052,14.058 L29.052,2.034 L27.678,1.134 L27.678,0.936 L31.11,-7.86037901e-13 L31.188,0.06 L31.188,7.038 L31.266,7.08 C32.466,5.964 33.516,5.466 34.596,5.466 C36.396,5.466 37.146,6.822 37.146,8.238 L37.146,14.082 L38.4,14.502 L38.4,14.778 L33.924,14.778 L33.924,14.478 L35.04,14.058 L35.04,9.078 C35.04,7.782 34.518,7.002 33.282,7.002" id="Path"></path>
                        <path d="M45.324,8.91 C45.246,7.038 44.724,6.018 43.524,6.018 C42.324,6.018 41.472,7.218 41.37,9.09 L45.318,8.91 L45.318,8.91 L45.324,8.91 Z M41.358,9.588 C41.358,12.12 42.072,13.788 44.358,13.788 C45.3891747,13.7672138 46.4070946,13.5514148 47.358,13.152 L47.478,13.392 C46.4281937,14.3943047 45.0568841,14.991728 43.608,15.078 C40.878,15.078 39.084,13.206 39.084,10.434 C39.084,7.662 41.238,5.478 43.668,5.478 C46.302,5.478 47.574,7.278 47.556,9.606 L41.358,9.606 L41.358,9.588 Z" id="Shape"></path>
                        <path d="M53.202,6.85796817 C52.6618115,6.85583594 52.126875,6.96404828 51.63,7.176 L51.63,13.5 C52.1983505,14.0896359 52.9830482,14.4212899 53.802,14.4180242 C55.002,14.4180242 55.956,13.362 55.956,10.548 C55.956,8.076 54.9,6.85796817 53.202,6.85796817 M52.86,15.078 C51.7184984,15.0467408 50.5855229,14.8713514 49.488,14.556 L49.488,2.034 L48.09,1.134 L48.09,0.936 L51.54,-1.14930288e-12 L51.624,0.078 L51.624,6.738 L51.702,6.78 C52.4501501,5.9726114 53.4935516,5.50286425 54.594,5.478 C56.49,5.478 58.194,7.212 58.194,10.062 C58.194,12.912 56.052,15.078 52.86,15.078" id="Shape"></path>
                        <path d="M63.666,15.39 C62.67,17.844 61.734,18.918 60.498,18.918 C59.442,18.918 58.944,18.318 58.944,17.664 C58.9790783,17.0271647 59.5062001,16.5290346 60.144,16.53 C60.7862279,16.5667261 61.3673902,16.9226317 61.692,17.478 C62.1305663,16.9623672 62.4997059,16.391512 62.79,15.78 L63.132,15.024 L59.604,6.522 L58.404,6.042 L58.404,5.784 L63.27,5.784 L63.27,6.042 L61.992,6.522 L64.146,12.366 L64.242,12.366 L66.18,6.678 L65.022,6.078 L65.022,5.784 L68.454,5.784 L68.454,6.042 L67.158,6.678 L63.666,15.372 L63.666,15.372 L63.666,15.39 Z" id="Path"></path>
                        <path d="M75.036,15.078 C74.0264382,15.0894119 73.0241451,14.9060656 72.084,14.538 L72.084,11.904 L72.486,11.862 C73.524,13.776 74.358,14.478 75.414,14.478 C75.8246968,14.5107334 76.2291652,14.3622001 76.5210689,14.0714501 C76.8129726,13.7807002 76.9631066,13.3768232 76.932,12.966 C76.932,11.928 75.876,11.532 74.736,11.07 C73.482,10.53 72.144,9.936 72.144,8.28 C72.144,6.624 73.524,5.478 75.576,5.478 C76.3890796,5.48286493 77.1972765,5.60409445 77.976,5.838 L78.036,8.238 L77.658,8.34 C76.692,6.678 76.056,6.078 75.132,6.078 C74.778376,6.05092588 74.4297164,6.1741383 74.1716214,6.41738706 C73.9135265,6.66063581 73.7698985,7.00139358 73.776,7.356 C73.776,8.394 74.85,8.814 75.99,9.27 C77.25,9.786 78.606,10.386 78.606,12.084 C78.606,13.938 76.968,15.114 75.036,15.114" id="Path"></path>
                        <path d="M0.252,27.126 L0.696,27.126 L0.696,22.488 L0.252,22.488 L0.252,27.126 L0.252,27.126 Z M2.304,27.126 L2.724,27.126 L2.724,23.184 L2.724,23.184 L5.364,27.126 L5.76,27.126 L5.76,22.488 L5.34,22.488 L5.34,26.31 L5.34,26.31 L2.784,22.488 L2.304,22.488 L2.304,27.126 L2.304,27.126 L2.304,27.126 Z M8.274,27.126 L8.724,27.126 L8.724,22.878 L10.224,22.878 L10.224,22.488 L6.78,22.488 L6.78,22.878 L8.28,22.878 L8.28,27.078 L8.28,27.078 L8.274,27.126 Z M11.22,27.126 L14.124,27.126 L14.124,26.718 L11.664,26.718 L11.664,24.876 L13.404,24.876 L13.404,24.474 L11.664,24.474 L11.664,22.878 L13.992,22.878 L13.992,22.488 L11.22,22.488 L11.22,27.126 L11.22,27.126 Z M15.33,27.126 L15.768,27.126 L15.768,25.044 L16.92,25.044 L18.054,27.126 L18.558,27.126 L17.358,24.99 C18.0067301,24.9419534 18.4990496,24.3857655 18.468,23.736 C18.468,22.92 17.868,22.482 16.854,22.482 L15.324,22.482 L15.324,27.12 L15.324,27.12 L15.33,27.126 Z M15.768,24.678 L15.768,22.878 L16.848,22.878 C17.628,22.878 18.048,23.106 18.048,23.742 C18.048,24.378 17.616,24.63 16.848,24.63 L15.762,24.63 L15.768,24.678 Z M20.04,27.156 L20.46,27.156 L20.46,23.184 L20.46,23.184 L23.1,27.126 L23.496,27.126 L23.496,22.488 L23.076,22.488 L23.076,26.31 L23.076,26.31 L20.52,22.488 L20.04,22.488 L20.04,27.126 L20.04,27.126 L20.04,27.156 Z M24.708,27.156 L25.14,27.156 L25.632,25.728 L27.51,25.728 L28.008,27.156 L28.47,27.156 L26.826,22.494 L26.34,22.494 L24.696,27.156 L24.696,27.156 L24.708,27.156 Z M25.776,25.356 L26.574,23.046 L26.574,23.046 L27.372,25.278 L25.77,25.278 L25.776,25.356 Z M30.264,27.156 L30.708,27.156 L30.708,22.878 L32.208,22.878 L32.208,22.488 L28.764,22.488 L28.764,22.878 L30.264,22.878 L30.264,27.078 L30.264,27.078 L30.264,27.156 Z M33.264,27.156 L33.708,27.156 L33.708,22.488 L33.264,22.488 L33.264,27.126 L33.264,27.126 L33.264,27.156 Z M37.002,27.24 C38.136,27.24 38.958,26.286 38.958,24.84 C38.958,23.394 38.136,22.44 37.002,22.44 C35.868,22.44 35.046,23.394 35.046,24.84 C35.046,26.286 35.868,27.24 37.002,27.24 L37.002,27.24 Z M37.002,26.838 C36.126,26.838 35.49,26.094 35.49,24.834 C35.49,23.574 36.126,22.83 37.002,22.83 C37.878,22.83 38.514,23.568 38.514,24.834 C38.514,26.1 37.884,26.838 37.002,26.838 L37.002,26.838 Z M40.38,27.15 L40.8,27.15 L40.8,23.184 L40.8,23.184 L43.44,27.126 L43.836,27.126 L43.836,22.488 L43.416,22.488 L43.416,26.31 L43.416,26.31 L40.86,22.488 L40.386,22.488 L40.386,27.126 L40.386,27.126 L40.38,27.15 Z M45.054,27.15 L45.486,27.15 L45.984,25.722 L47.862,25.722 L48.36,27.15 L48.822,27.15 L47.178,22.488 L46.692,22.488 L45.048,27.15 L45.048,27.15 L45.054,27.15 Z M46.122,25.35 L46.92,23.04 L46.92,23.04 L47.724,25.278 L46.116,25.278 L46.122,25.35 Z M50.058,27.15 L52.77,27.15 L52.77,26.718 L50.502,26.718 L50.502,22.488 L50.058,22.488 L50.058,27.126 L50.058,27.126 L50.058,27.15 Z M55.458,27.15 L55.896,27.15 L55.896,25.044 L57.054,25.044 L58.188,27.126 L58.686,27.126 L57.486,24.99 C58.1347301,24.9419534 58.6270496,24.3857655 58.596,23.736 C58.596,22.92 57.996,22.482 56.988,22.482 L55.434,22.482 L55.434,27.12 L55.434,27.12 L55.458,27.15 Z M55.872,24.678 L55.872,22.878 L56.952,22.878 C57.732,22.878 58.152,23.106 58.152,23.742 C58.152,24.378 57.72,24.63 56.952,24.63 L55.866,24.63 L55.872,24.678 Z M60.018,27.156 L62.922,27.156 L62.922,26.718 L60.462,26.718 L60.462,24.876 L62.196,24.876 L62.196,24.474 L60.462,24.474 L60.462,22.878 L62.79,22.878 L62.79,22.488 L60.018,22.488 L60.018,27.126 L60.018,27.126 L60.018,27.156 Z M63.492,27.156 L63.924,27.156 L64.422,25.728 L66.324,25.728 L66.816,27.156 L67.278,27.156 L65.634,22.494 L65.124,22.494 L63.48,27.156 L63.48,27.156 L63.492,27.156 Z M64.56,25.356 L65.358,23.046 L65.358,23.046 L66.162,25.278 L64.56,25.278 L64.56,25.356 Z M68.382,27.156 L71.094,27.156 L71.094,26.718 L68.826,26.718 L68.826,22.488 L68.382,22.488 L68.382,27.126 L68.382,27.126 L68.382,27.156 Z M72.336,27.156 L72.78,27.156 L72.78,22.878 L74.28,22.878 L74.28,22.488 L70.836,22.488 L70.836,22.878 L72.324,22.878 L72.324,27.078 L72.324,27.078 L72.336,27.156 Z M76.344,27.156 L76.788,27.156 L76.788,25.086 L78.348,22.488 L77.868,22.488 L76.578,24.678 L75.276,22.464 L74.79,22.464 L76.344,25.062 L76.344,27.108 L76.344,27.108 L76.344,27.156 Z" id="Shape"></path>
                    </g>
                </g>
            </g>
        </g>
    </g>
</svg>