<svg id="logo" xmlns="http://www.w3.org/2000/svg" width="288.79" height="107.87" viewBox="0 0 288.79 107.87"><path d="M310.87,177.76a20.21,20.21,0,0,1-9.11-2.28l-1.09,1.63H298.8l-.37-11.06h1.88c1.61,5.13,4.85,9.94,11,9.94,4.76,0,7.15-2.61,7.15-6,0-2.57-2.07-4.9-5.18-6.06s-4.61-1.49-7.46-2.66c-4-1.64-6.43-4.16-6.43-8.41,0-5,5-8.77,10.88-8.77a16.55,16.55,0,0,1,8.18,2.24l1-1.55h1.87l.2,10.74h-1.92c-1.5-4.95-3.61-9.67-9.68-9.67-3.21,0-6.18,2.29-6.18,5s1.87,4.56,4.66,5.78c2.49,1.07,4.77,1.68,7.05,2.61,4.2,1.64,7.58,3.66,7.58,8.7C323.09,173.7,317.85,177.76,310.87,177.76Z" transform="translate(-161.6 -144.07)" fill="#552448"/><path d="M188.3,168.33c0-6-5.55-8-9.43-8.49v-.19c4-.93,7.66-3.12,7.66-7.84,0-5.27-5.09-7.05-9.38-7.05H161.79v1.64a9,9,0,0,1,2.94.75,2.31,2.31,0,0,1,1.31,2.33v23.24a2.2,2.2,0,0,1-1.31,2.24,15.28,15.28,0,0,1-3.13.51v1.64h15.78C182.52,177.11,188.3,174.36,188.3,168.33Zm-7.23-16.05c0,4-2.15,6.81-7.28,6.81h-2.9V146.68c1.12-.05,2.9-.09,3.69-.09C177.47,146.59,181.07,147.57,181.07,152.28Zm1.63,15.22c0,3.83-1.45,7.79-7,7.79-2.8,0-4.81-1-4.81-2.89V161c.84,0,2.85-.09,4.39-.09C180.09,160.92,182.7,163.67,182.7,167.5Z" transform="translate(-161.6 -144.07)" fill="#552448"/><path d="M221.56,167.59h-1.64a24,24,0,0,1-3.64,6.58c-1.12,1.17-3.71,1.08-6.14,1.08-4.71,0-5.5-.43-5.5-4.25v-9.71h3c2.8,0,3.4.75,4,1.4A9.75,9.75,0,0,1,213,166.8h1.67V154.14H213a9.73,9.73,0,0,1-1.36,3.84c-.56.69-1.16,1.44-4,1.44h-3V146.59h4.45a32.5,32.5,0,0,1,3.92.18c2,.24,4.3,3.73,4.85,5.79h1.69v-7.8H195.16v1.64a12.53,12.53,0,0,1,3.31.79,2.2,2.2,0,0,1,1.31,2.29v23.24a2.25,2.25,0,0,1-1.31,2.29,22.73,22.73,0,0,1-3.31.47v1.63H221Z" transform="translate(-161.6 -144.07)" fill="#552448"/><path d="M259.47,177.11v-1.63a8.81,8.81,0,0,1-3-.61,9.69,9.69,0,0,1-3.41-3.08c-3.31-4.43-4.34-6-7.89-10.59,4.48-1.36,7.89-3.6,7.89-8.74,0-5.55-4.85-7.7-10.17-7.7H228v1.64a16,16,0,0,1,3,.56,2.28,2.28,0,0,1,1.31,2.38v23.38a2.28,2.28,0,0,1-1.31,2.34,18.77,18.77,0,0,1-3,.42v1.63h13.67v-1.63a20.31,20.31,0,0,1-3.17-.42,2.24,2.24,0,0,1-1.31-2.34V162.46h3.27a167,167,0,0,1,10.32,14.65Zm-12-24.13c0,4.67-3.13,7.52-7.33,7.52h-3V146.63H241C244.59,146.63,247.48,148.5,247.48,153Z" transform="translate(-161.6 -144.07)" fill="#552448"/><path d="M294,177.11v-1.63a8.79,8.79,0,0,1-2.94-.61,11.8,11.8,0,0,1-3.64-3.08c-3.88-4.85-6.11-7.75-10.55-12.79,4-3.78,6.16-6.44,9.94-10.73,1.5-1.68,4.86-1.87,5.32-1.87v-1.64H280v1.64c.79,0,3.36.19,3.36,1.12,0,2.24-5.51,8.22-11.11,12.88h-.42V149.25c0-1,.23-1.92,1.31-2.29a13.14,13.14,0,0,1,3-.56v-1.64H262.7v1.64a11,11,0,0,1,2.94.79,2.27,2.27,0,0,1,1.31,2.29v23.34a2.21,2.21,0,0,1-1.31,2.28,18,18,0,0,1-2.94.38v1.63h13.39v-1.63a13.26,13.26,0,0,1-3-.61,2.36,2.36,0,0,1-1.31-2.33V161.29h.56a114,114,0,0,1,12.56,15.82Z" transform="translate(-161.6 -144.07)" fill="#552448"/><path d="M362.43,177.11v-1.63a11,11,0,0,1-2.94-.61,2.41,2.41,0,0,1-1.31-2.33V149.25a2.13,2.13,0,0,1,1.31-2.29,12.71,12.71,0,0,1,2.94-.56v-1.64H349v1.64a11.33,11.33,0,0,1,3,.79,2.27,2.27,0,0,1,1.31,2.29v9.8H338.16v-10c0-1,.23-1.92,1.26-2.29a13.12,13.12,0,0,1,2.94-.56v-1.64H329v1.64a11.3,11.3,0,0,1,3,.79,2.3,2.3,0,0,1,1.35,2.29v23.34A2.17,2.17,0,0,1,332,175.1a18,18,0,0,1-3,.38v1.63h13.4v-1.63a11,11,0,0,1-2.94-.61,2.37,2.37,0,0,1-1.26-2.33V161.29h15.17v11.53A2.14,2.14,0,0,1,352,175.1a17.89,17.89,0,0,1-3,.38v1.63Z" transform="translate(-161.6 -144.07)" fill="#552448"/><path d="M383.43,177.11v-1.63a17.69,17.69,0,0,1-3.4-.61,2.27,2.27,0,0,1-1.45-2.28V149.2A2,2,0,0,1,380,147a16.87,16.87,0,0,1,3.4-.56v-1.64H368.87v1.64a15,15,0,0,1,3.41.79,2.1,2.1,0,0,1,1.45,2.24v23.43a2.1,2.1,0,0,1-1.45,2.24,23.82,23.82,0,0,1-3.41.38v1.63Z" transform="translate(-161.6 -144.07)" fill="#552448"/><path d="M421.39,177.11v-1.63a8.81,8.81,0,0,1-3-.61,9.61,9.61,0,0,1-3.41-3.08c-3.32-4.43-4.34-6-7.89-10.59,4.48-1.36,7.89-3.6,7.89-8.74,0-5.55-4.85-7.7-10.18-7.7H389.89v1.64a16,16,0,0,1,3,.56,2.28,2.28,0,0,1,1.31,2.38v23.38a2.28,2.28,0,0,1-1.31,2.34,18.93,18.93,0,0,1-3,.42v1.63h13.67v-1.63a20.15,20.15,0,0,1-3.17-.42,2.23,2.23,0,0,1-1.31-2.34V162.46h3.27a167,167,0,0,1,10.32,14.65ZM409.4,153c0,4.67-3.12,7.52-7.33,7.52h-3V146.63H403C406.51,146.63,409.4,148.5,409.4,153Z" transform="translate(-161.6 -144.07)" fill="#552448"/><path d="M450.4,167.59h-1.64a23.91,23.91,0,0,1-3.63,6.58c-1.13,1.17-3.72,1.08-6.15,1.08-4.71,0-5.51-.43-5.51-4.25v-9.71h3c2.8,0,3.4.75,4,1.4a9.62,9.62,0,0,1,1.36,4.11h1.68V154.14h-1.68a9.58,9.58,0,0,1-1.36,3.84c-.56.69-1.16,1.44-4,1.44h-3V146.59h4.47a32.6,32.6,0,0,1,3.92.18c1.95.24,4.29,3.73,4.85,5.79h1.68v-7.8H424v1.64a12.43,12.43,0,0,1,3.31.79,2.2,2.2,0,0,1,1.31,2.29v23.24a2.25,2.25,0,0,1-1.31,2.29,22.53,22.53,0,0,1-3.31.47v1.63h25.79Z" transform="translate(-161.6 -144.07)" fill="#552448"/><path d="M204.54,220v-1.64a10.62,10.62,0,0,1-2.94-.61,2.4,2.4,0,0,1-1.31-2.33V192.11a2.12,2.12,0,0,1,1.31-2.28,12.11,12.11,0,0,1,2.94-.56v-1.64H191.15v1.64a11,11,0,0,1,3,.79,2.26,2.26,0,0,1,1.31,2.28v9.8H180.27v-10c0-1,.24-1.91,1.26-2.28a12.58,12.58,0,0,1,2.94-.56v-1.64H171.08v1.64a11,11,0,0,1,3,.79,2.3,2.3,0,0,1,1.36,2.28v23.34a2.21,2.21,0,0,1-1.36,2.29,19.08,19.08,0,0,1-3,.37V220h13.39v-1.64a10.7,10.7,0,0,1-2.94-.61,2.36,2.36,0,0,1-1.26-2.33V204.16h15.17v11.52a2.17,2.17,0,0,1-1.31,2.29,19.08,19.08,0,0,1-3,.37V220Z" transform="translate(-161.6 -144.07)" fill="#552448"/><path d="M240.19,220v-1.64a7.49,7.49,0,0,1-2.8-.75,4.93,4.93,0,0,1-1.95-2.51l-10.78-27.91h-1.83c-3.54,9.05-7.32,19-10.64,27.2a5.9,5.9,0,0,1-2.38,3.13,7,7,0,0,1-2.94.84V220h12.19v-1.64c-1.5-.09-4.68-.51-4.68-2a9.35,9.35,0,0,1,.52-2.56c.42-1.5,1.07-3.27,1.73-5H228l2.71,7.29a3.4,3.4,0,0,1,.18,1c0,.84-2.66,1.22-4.15,1.31V220Zm-13-13.21h-9.7l4.8-12.56Z" transform="translate(-161.6 -144.07)" fill="#552448"/><path d="M267.17,196.41v-8.78H239v8.78h1.64c.51-2.06,2.94-6.54,4.94-6.82,1.13-.14,2.94-.19,3.78-.19h1.31v26.09a2.22,2.22,0,0,1-1.45,2.34,23.16,23.16,0,0,1-3.73.51V220h15.26v-1.64a21.6,21.6,0,0,1-3.78-.7,2.41,2.41,0,0,1-1.45-2.38V189.4h1.36a33.28,33.28,0,0,1,3.73.19c2,.28,4.48,4.76,5,6.82Z" transform="translate(-161.6 -144.07)" fill="#552448"/><path d="M304.81,220v-1.64a10.7,10.7,0,0,1-2.94-.61,2.4,2.4,0,0,1-1.31-2.33V192.11a2.12,2.12,0,0,1,1.31-2.28,12.29,12.29,0,0,1,2.94-.56v-1.64h-13.4v1.64a11,11,0,0,1,3,.79,2.27,2.27,0,0,1,1.3,2.28v9.8H280.54v-10c0-1,.24-1.91,1.26-2.28a12.68,12.68,0,0,1,2.94-.56v-1.64H271.35v1.64a11,11,0,0,1,3,.79,2.29,2.29,0,0,1,1.35,2.28v23.34a2.21,2.21,0,0,1-1.35,2.29,19.22,19.22,0,0,1-3,.37V220h13.39v-1.64a10.7,10.7,0,0,1-2.94-.61,2.36,2.36,0,0,1-1.26-2.33V204.16h15.17v11.52a2.18,2.18,0,0,1-1.3,2.29,19.2,19.2,0,0,1-3,.37V220Z" transform="translate(-161.6 -144.07)" fill="#552448"/><path d="M340.46,220v-1.64a7.54,7.54,0,0,1-2.8-.75,5.11,5.11,0,0,1-2-2.51l-10.77-27.91h-1.82c-3.55,9.05-7.33,19-10.64,27.2a6,6,0,0,1-2.39,3.13,6.93,6.93,0,0,1-2.93.84V220h12.18v-1.64c-1.5-.09-4.67-.51-4.67-2a9.66,9.66,0,0,1,.51-2.56c.42-1.5,1.08-3.27,1.73-5h11.34l2.71,7.29a3.4,3.4,0,0,1,.18,1c0,.84-2.66,1.22-4.15,1.31V220Zm-13-13.21h-9.71l4.81-12.56Z" transform="translate(-161.6 -144.07)" fill="#552448"/><path d="M383.76,189.27v-1.64H372v1.64c2,.13,4.48.51,4.48,2a18.14,18.14,0,0,1-.84,4.25c-1,4-2.57,9.52-4.76,17.08l-8.12-24.5h-2.24l-8.07,24c-3-10.56-5.23-18.16-5.84-20.45a10.13,10.13,0,0,1-.19-1.21c0-.93,2.71-1.07,4.2-1.16v-1.64H337.45v1.64a6.15,6.15,0,0,1,2.72.79,3.83,3.83,0,0,1,1.67,2.28l7.94,28.06h2l8.5-24.88,8.17,24.88h2.1c3-9.85,6.53-21.24,8.35-27.31a4.68,4.68,0,0,1,2.15-2.94A6.29,6.29,0,0,1,383.76,189.27Z" transform="translate(-161.6 -144.07)" fill="#552448"/><path d="M413.28,220v-1.64a7.39,7.39,0,0,1-2.8-.75,5,5,0,0,1-2-2.51l-10.78-27.91h-1.82c-3.54,9.05-7.33,19-10.64,27.2a6,6,0,0,1-2.38,3.13,7,7,0,0,1-2.94.84V220h12.18v-1.64c-1.49-.09-4.66-.51-4.66-2a9.27,9.27,0,0,1,.51-2.56c.42-1.5,1.07-3.27,1.73-5H401l2.71,7.29a3.1,3.1,0,0,1,.19,1c0,.84-2.66,1.22-4.15,1.31V220Zm-13-13.21h-9.71l4.81-12.56Z" transform="translate(-161.6 -144.07)" fill="#552448"/><path d="M440.92,189.27v-1.64H429.68v1.64c1.91.13,4.29.27,4.29,1.68,0,.79-3.26,6.3-7.37,12.88-4.11-7.47-7.09-12.84-7.09-13.49,0-1,2.75-1,4.24-1.07v-1.64H410v1.64a6.16,6.16,0,0,1,2.65.74,7.61,7.61,0,0,1,2.66,3.13c2,3.45,3.74,6.72,5.93,11a13.63,13.63,0,0,1,1.5,3.49v7.85a2.28,2.28,0,0,1-1.41,2.42,21.6,21.6,0,0,1-3.68.47V220h15.12v-1.64a19.71,19.71,0,0,1-3.69-.7,2.43,2.43,0,0,1-1.49-2.43v-6.16a7.63,7.63,0,0,1,1.4-4.89,135.85,135.85,0,0,1,7-11.63,6.56,6.56,0,0,1,2.43-2.42A8,8,0,0,1,440.92,189.27Z" transform="translate(-161.6 -144.07)" fill="#552448"/><path d="M221.25,251.48v-1.06a10.65,10.65,0,0,0,1.94-.25,1.4,1.4,0,0,0,.85-1.48v-7.5h-9.86v7.31A1.53,1.53,0,0,0,215,250a7.25,7.25,0,0,0,1.91.4v1.06h-8.7v-1.06a10.89,10.89,0,0,0,1.94-.25,1.43,1.43,0,0,0,.88-1.48V233.52a1.51,1.51,0,0,0-.88-1.49,7.52,7.52,0,0,0-1.94-.51v-1.06h8.7v1.06a9,9,0,0,0-1.91.36c-.67.24-.82.82-.82,1.49v6.52H224v-6.37a1.47,1.47,0,0,0-.85-1.49,7.31,7.31,0,0,0-1.94-.51v-1.06H230v1.06a8.46,8.46,0,0,0-1.91.36,1.38,1.38,0,0,0-.85,1.49V248.5a1.56,1.56,0,0,0,.85,1.52,7.08,7.08,0,0,0,1.91.4v1.06Z" transform="translate(-161.6 -144.07)" fill="#552448"/><path d="M239.11,251.93c-3.73,0-7-3-7-7.7,0-4.58,2.88-7.77,7.22-7.77s7,3.25,7,7.55S243.79,251.93,239.11,251.93Zm.19-14.35c-3.22,0-4.13,3.46-4.13,6.41,0,3.67,1.21,6.82,4.13,6.82,2.76,0,4-3.09,4-6.76C243.3,240.83,242.3,237.58,239.3,237.58Z" transform="translate(-161.6 -144.07)" fill="#552448"/><path d="M266.34,251.48v-1a6.75,6.75,0,0,0,1.3-.19,1.22,1.22,0,0,0,.82-1.33v-7.55c0-2.07-1.06-3.22-2.46-3.22a4.25,4.25,0,0,0-3.7,2.18v8.44a1.32,1.32,0,0,0,.79,1.36,4.06,4.06,0,0,0,1.33.31v1h-7v-1a6,6,0,0,0,1.24-.19,1.22,1.22,0,0,0,.82-1.33v-7.55c0-2.07-1.06-3.22-2.46-3.22a4.26,4.26,0,0,0-3.7,2.22v8.37a1.34,1.34,0,0,0,.82,1.36,3.78,3.78,0,0,0,1.37.34v1h-7.1v-1a7,7,0,0,0,1.33-.19,1.22,1.22,0,0,0,.82-1.33v-9.07a1.88,1.88,0,0,0-.82-1.52,3.87,3.87,0,0,0-1.55-.42v-1l4.89-.31.21.22V239h.09c1.18-1.15,2.28-2.52,4.89-2.52a4.16,4.16,0,0,1,3.91,2.61c1.24-1.18,2.43-2.61,5-2.61,2.82,0,4,2.06,4,4.95v7.43a1.32,1.32,0,0,0,.79,1.36,4.63,4.63,0,0,0,1.42.31v1Z" transform="translate(-161.6 -144.07)" fill="#552448"/><path d="M282.15,251.87c-4.76,0-7-3.55-7-7.82,0-3.89,2.51-7.59,6.67-7.59,4.34,0,5.95,2.94,5.95,6.28v1h-9.68c0,3.73,1.42,6.52,4.88,6.52,2.13,0,3.07-1,4.13-2.82l1,.64A6.7,6.7,0,0,1,282.15,251.87Zm-.33-14.29c-2,0-3.58,1.76-3.7,4.89h6.76C284.88,240,284.31,237.58,281.82,237.58Z" transform="translate(-161.6 -144.07)" fill="#552448"/><path d="M298.19,251.9a10.61,10.61,0,0,1-5.25-1.48l-.63,1.06h-1.19l-.21-7.19h1.18c.94,3.33,2.76,6.34,6.37,6.34,2.79,0,4-1.49,4-3.7a4.35,4.35,0,0,0-2.82-4c-1.76-.69-2.7-1-4.37-1.73a5.65,5.65,0,0,1-3.76-5.49c0-3.24,2.91-5.7,6.37-5.7a8.73,8.73,0,0,1,4.7,1.46l.61-1h1.18l.12,7h-1.21c-.88-3.21-2-6.16-5.59-6.16a3.24,3.24,0,0,0-3.39,3.13,3.83,3.83,0,0,0,2.48,3.73c1.46.7,2.8,1.09,4.13,1.7,2.46,1.06,4.46,2.4,4.46,5.67C305.35,249.26,302.29,251.9,298.19,251.9Z" transform="translate(-161.6 -144.07)" fill="#552448"/><path d="M315.27,251.87c-4.76,0-7-3.55-7-7.82,0-3.89,2.52-7.59,6.68-7.59,4.34,0,5.94,2.94,5.94,6.28v1h-9.67c0,3.73,1.42,6.52,4.88,6.52,2.12,0,3.06-1,4.13-2.82l1,.64A6.71,6.71,0,0,1,315.27,251.87Zm-.33-14.29c-2,0-3.58,1.76-3.7,4.89H318C318,240,317.42,237.58,314.94,237.58Z" transform="translate(-161.6 -144.07)" fill="#552448"/><path d="M332.87,240.68c-1.12,0-1.7-.67-1.7-1.37a6,6,0,0,1,.15-1.12,4.36,4.36,0,0,0-3.21,2.15v8.5a1.28,1.28,0,0,0,.81,1.33,8,8,0,0,0,2,.34v1h-7.71v-1a7.08,7.08,0,0,0,1.34-.19,1.23,1.23,0,0,0,.81-1.33v-9a2.18,2.18,0,0,0-.81-1.64A3.63,3.63,0,0,0,323,238v-1l4.85-.31.22.22v2h.06a5.58,5.58,0,0,1,4.09-2.43,2.06,2.06,0,0,1,2.13,2.25C334.39,239.74,333.9,240.68,332.87,240.68Z" transform="translate(-161.6 -144.07)" fill="#552448"/><path d="M349.47,239.53c-1.25,2.91-2.37,5.37-3.74,8.67a26.8,26.8,0,0,0-1.24,3.4h-1.18c-2.25-5.58-2.88-7.1-5-12.2a2.87,2.87,0,0,0-2.27-1.54v-1h6.73v1c-.7,0-1.76.18-1.76.64,0,.06.12.36.21.66l3.52,8.59c.73-1.7,2-4.64,3.1-7.41a4.64,4.64,0,0,0,.42-1.45c0-.7-1.55-1.06-2-1.12v-.94h5.58v.88A3.07,3.07,0,0,0,349.47,239.53Z" transform="translate(-161.6 -144.07)" fill="#552448"/><path d="M354,251.48v-1a7.08,7.08,0,0,0,1.34-.19,1.23,1.23,0,0,0,.81-1.33v-9a2,2,0,0,0-.81-1.55,4.67,4.67,0,0,0-1.79-.45v-1l5.15-.31.22.22v11.89a1.32,1.32,0,0,0,.81,1.36,4.32,4.32,0,0,0,1.34.34v1ZM357.28,233a2,2,0,0,1-1.85-2,2,2,0,0,1,1.85-2,1.91,1.91,0,0,1,1.94,1.91A2,2,0,0,1,357.28,233Z" transform="translate(-161.6 -144.07)" fill="#552448"/><path d="M369.6,251.87c-4.49,0-6.76-3.33-6.76-7.76,0-4,2.7-7.65,7-7.65,3.21,0,4.85,1.73,4.85,3.82,0,1-.42,1.89-1.52,1.89s-1.85-.7-1.85-1.43a16.51,16.51,0,0,1,.4-2.4,2.14,2.14,0,0,0-1.94-.76c-1.82,0-3.83,1.64-3.83,6.41,0,3.58,1.7,6.24,4.43,6.24,1.94,0,3.1-1,4.19-2.79l1,.64A7.05,7.05,0,0,1,369.6,251.87Z" transform="translate(-161.6 -144.07)" fill="#552448"/><path d="M384.39,251.87c-4.76,0-7-3.55-7-7.82,0-3.89,2.51-7.59,6.67-7.59,4.34,0,6,2.94,6,6.28v1h-9.68c0,3.73,1.42,6.52,4.88,6.52,2.13,0,3.07-1,4.13-2.82l1,.64A6.7,6.7,0,0,1,384.39,251.87Zm-.33-14.29c-2,0-3.58,1.76-3.7,4.89h6.76C387.12,240,386.55,237.58,384.06,237.58Z" transform="translate(-161.6 -144.07)" fill="#552448"/><path d="M398.33,251.87a6.72,6.72,0,0,1-3.88-1.3l-.3.94h-1.1l-.15-5.07h1c.37,1.58,2,4.28,4.65,4.28,1.91,0,3-.91,3-2.49s-1.34-2.3-3.76-3c-2-.61-4.49-1.7-4.49-4.46,0-2.4,1.91-4.28,4.91-4.28a7,7,0,0,1,3.22.76l.33-.79h1.06l.25,4.7h-1a4,4,0,0,0-3.85-3.55c-1.61,0-2.61.94-2.61,2.1,0,1.76,1.22,2.18,3.7,3,2.7.88,4.55,1.94,4.55,4.58C403.79,250.11,401.37,251.87,398.33,251.87Z" transform="translate(-161.6 -144.07)" fill="#552448"/></svg>